<svg width="117" height="33" viewBox="0 0 117 33" fill="none" xmlns="http://www.w3.org/2000/svg">
<g clip-path="url(#clip0_23_1688)">
<g clip-path="url(#clip1_23_1688)">
<path d="M24.7606 7.34757C22.8685 6.46381 20.8454 5.82153 18.7303 5.45581C18.4705 5.92465 18.167 6.55525 17.9578 7.05689C15.7093 6.71933 13.4816 6.71933 11.2745 7.05689C11.0653 6.55525 10.7549 5.92465 10.4928 5.45581C8.3754 5.82153 6.34993 6.46617 4.45782 7.35225C0.641408 13.1095 -0.393158 18.7237 0.124126 24.2582C2.65537 26.1453 5.10845 27.2916 7.52014 28.0417C8.11559 27.2236 8.64666 26.3539 9.10416 25.4374C8.23283 25.1068 7.39829 24.699 6.60974 24.2254C6.81894 24.0707 7.02357 23.909 7.22126 23.7425C12.0308 25.9882 17.2566 25.9882 22.0087 23.7425C22.2087 23.909 22.4133 24.0707 22.6202 24.2254C21.8294 24.7013 20.9925 25.1092 20.1212 25.4397C20.5787 26.3539 21.1075 27.226 21.7052 28.044C24.1192 27.2939 26.5746 26.1476 29.1058 24.2582C29.7128 17.8423 28.069 12.2796 24.7606 7.34757ZM9.7594 20.8546C8.31561 20.8546 7.13159 19.509 7.13159 17.8704C7.13159 16.2319 8.29033 14.884 9.7594 14.884C11.2285 14.884 12.4125 16.2295 12.3872 17.8704C12.3895 19.509 11.2285 20.8546 9.7594 20.8546ZM19.4706 20.8546C18.0268 20.8546 16.8428 19.509 16.8428 17.8704C16.8428 16.2319 18.0015 14.884 19.4706 14.884C20.9396 14.884 22.1237 16.2295 22.0984 17.8704C22.0984 19.509 20.9396 20.8546 19.4706 20.8546Z" fill="#080808"/>
<path d="M39.2788 11.2183H45.555C47.068 11.2183 48.3462 11.4597 49.3948 11.9403C50.4406 12.4208 51.2247 13.0912 51.7444 13.9492C52.2637 14.8071 52.5257 15.7893 52.5257 16.8958C52.5257 17.9788 52.2545 18.961 51.7119 19.84C51.1694 20.7214 50.344 21.4177 49.2337 21.931C48.1234 22.4444 46.7483 22.7022 45.1047 22.7022H39.2788V11.2183ZM45.0401 19.7838C46.0587 19.7838 46.8428 19.5236 47.3898 19.0055C47.9371 18.4851 48.2108 17.7772 48.2108 16.8794C48.2108 16.0472 47.9667 15.3838 47.4795 14.8868C46.9923 14.3899 46.2542 14.1391 45.2677 14.1391H43.3044V19.7838H45.0401Z" fill="#080808"/>
<path d="M61.9224 22.6882C61.0533 22.4585 60.2691 22.1256 59.5728 21.6873V18.9634C60.0993 19.3783 60.8049 19.7206 61.69 19.9901C62.5751 20.2574 63.4305 20.391 64.258 20.391C64.6442 20.391 64.9363 20.3394 65.1339 20.2362C65.3318 20.1331 65.4308 20.0089 65.4308 19.8659C65.4308 19.7018 65.3779 19.5658 65.2697 19.4556C65.1615 19.3455 64.9523 19.254 64.6422 19.1767L62.7109 18.7336C61.605 18.4711 60.8209 18.1078 60.3545 17.6413C59.8877 17.1771 59.6553 16.5676 59.6553 15.8128C59.6553 15.1776 59.8576 14.6267 60.2671 14.1555C60.6738 13.6844 61.2532 13.321 62.0049 13.0655C62.757 12.8076 63.6349 12.6787 64.6442 12.6787C65.5454 12.6787 66.3708 12.7772 67.1229 12.9741C67.8745 13.171 68.4952 13.4218 68.9897 13.7289V16.3051C68.4836 15.998 67.9042 15.7566 67.2423 15.5737C66.5823 15.3932 65.9044 15.3042 65.2052 15.3042C64.1959 15.3042 63.6926 15.48 63.6926 15.8292C63.6926 15.9934 63.7707 16.1152 63.927 16.1973C64.0833 16.2793 64.3706 16.3637 64.7869 16.4528L66.396 16.7482C67.447 16.9334 68.2308 17.2592 68.7456 17.7233C69.2609 18.1875 69.5182 18.8743 69.5182 19.7838C69.5182 20.7801 69.093 21.5701 68.24 22.1561C67.3869 22.7422 66.1776 23.0352 64.6098 23.0352C63.6878 23.0328 62.7915 22.918 61.9224 22.6882Z" fill="#080808"/>
<path d="M73.3165 22.3435C72.3949 21.884 71.6981 21.2605 71.2337 20.4729C70.7693 19.6852 70.5349 18.7991 70.5349 17.8146C70.5349 16.8301 70.7761 15.9487 71.259 15.1727C71.7418 14.3968 72.4498 13.7873 73.3834 13.3443C74.3166 12.9013 75.4317 12.6809 76.7307 12.6809C78.3399 12.6809 79.6757 13.0255 80.738 13.7147V16.7175C80.3633 16.455 79.9262 16.2417 79.4273 16.0776C78.9285 15.9135 78.3951 15.8314 77.825 15.8314C76.8273 15.8314 76.0479 16.0166 75.4846 16.3893C74.9212 16.7621 74.6387 17.2473 74.6387 17.8497C74.6387 18.4405 74.912 18.9234 75.4593 19.3031C76.0067 19.6805 76.7996 19.8704 77.841 19.8704C78.3767 19.8704 78.9056 19.7907 79.4273 19.6337C79.947 19.4743 80.3954 19.2797 80.77 19.0499V21.9543C79.5908 22.6763 78.2229 23.0373 76.6662 23.0373C75.356 23.0327 74.2384 22.8029 73.3165 22.3435Z" fill="#080808"/>
<path d="M84.7522 22.3435C83.8234 21.8841 83.1154 21.2559 82.6278 20.4565C82.1406 19.6571 81.8945 18.7664 81.8945 17.7818C81.8945 16.7973 82.1381 15.9182 82.6278 15.147C83.1174 14.3758 83.821 13.771 84.7454 13.3326C85.667 12.8943 86.7685 12.6763 88.0442 12.6763C89.3204 12.6763 90.4215 12.8943 91.3435 13.3326C92.2655 13.771 92.9691 14.3711 93.4519 15.1376C93.9347 15.9042 94.1759 16.7832 94.1759 17.7795C94.1759 18.764 93.9347 19.6548 93.4519 20.4541C92.9691 21.2535 92.2631 21.8817 91.3343 22.3412C90.4055 22.8007 89.3088 23.0304 88.0422 23.0304C86.7753 23.0304 85.6786 22.803 84.7522 22.3435ZM89.6422 19.4321C90.0332 19.0336 90.2308 18.5062 90.2308 17.8498C90.2308 17.1935 90.0353 16.6707 89.6422 16.2839C89.2515 15.8948 88.7178 15.7002 88.0422 15.7002C87.3547 15.7002 86.8165 15.8948 86.4235 16.2839C86.0328 16.6731 85.8373 17.1935 85.8373 17.8498C85.8373 18.5062 86.0328 19.0336 86.4235 19.4321C86.8145 19.8306 87.3547 20.0322 88.0422 20.0322C88.7178 20.0299 89.2515 19.8306 89.6422 19.4321Z" fill="#080808"/>
<path d="M103.846 13.2859V16.8303C103.437 16.556 102.908 16.42 102.253 16.42C101.395 16.42 100.733 16.6849 100.273 17.2147C99.8109 17.7445 99.5809 18.5696 99.5809 19.6854V22.7047H95.6382V13.1054H99.5008V16.1575C99.7144 15.0417 100.062 14.2189 100.54 13.6867C101.016 13.157 101.632 12.8921 102.381 12.8921C102.949 12.8921 103.437 13.0234 103.846 13.2859Z" fill="#080808"/>
<path d="M116.946 10.8901V22.7047H113.002V20.5551C112.669 21.3638 112.163 21.9803 111.483 22.4023C110.802 22.8219 109.961 23.0329 108.963 23.0329C108.071 23.0329 107.294 22.8125 106.63 22.3695C105.965 21.9264 105.453 21.3193 105.092 20.5481C104.733 19.7768 104.551 18.9048 104.551 17.9297C104.54 16.924 104.731 16.0215 105.124 15.2221C105.515 14.4228 106.069 13.7993 106.781 13.3515C107.494 12.9038 108.308 12.6787 109.221 12.6787C111.099 12.6787 112.359 13.5109 113.002 15.1729V10.8901H116.946ZM112.414 19.3666C112.817 18.9681 113.017 18.4501 113.017 17.8171C113.017 17.2053 112.821 16.706 112.43 16.3239C112.039 15.9418 111.504 15.7496 110.83 15.7496C110.166 15.7496 109.635 15.9441 109.237 16.3333C108.839 16.7224 108.641 17.2264 108.641 17.8499C108.641 18.4735 108.839 18.9822 109.237 19.376C109.635 19.7698 110.159 19.9667 110.814 19.9667C111.478 19.9644 112.012 19.7651 112.414 19.3666Z" fill="#080808"/>
<path d="M55.8486 14.1272C56.934 14.1272 57.8143 13.3212 57.8143 12.3269C57.8143 11.3326 56.934 10.5266 55.8486 10.5266C54.7627 10.5266 53.8828 11.3326 53.8828 12.3269C53.8828 13.3212 54.7627 14.1272 55.8486 14.1272Z" fill="#080808"/>
<path d="M53.8811 15.3674C55.0856 15.8972 56.5801 15.9206 57.8122 15.3674V22.7562H53.8811V15.3674Z" fill="#080808"/>
</g>
</g>
<defs>
<clipPath id="clip0_23_1688">
<rect width="117" height="32" fill="white" transform="translate(0 0.75)"/>
</clipPath>
<clipPath id="clip1_23_1688">
<rect width="117" height="32" fill="white" transform="translate(0 0.75)"/>
</clipPath>
</defs>
</svg>
