<svg width="113" height="16" viewBox="0 0 113 16" fill="none" xmlns="http://www.w3.org/2000/svg">
<g clip-path="url(#clip0_1239_7201)">
<path d="M8.4704 2.08137C8.4704 0.853773 7.30418 0.546875 6.38349 0.546875V0.731014C6.9359 0.731014 7.36556 0.915153 7.36556 1.34481C7.36556 1.59033 7.18142 1.95861 6.62901 1.95861C6.19935 1.95861 5.27865 1.71309 4.60348 1.46757C3.80554 1.16067 3.06898 0.915153 2.45519 0.915153C1.22759 0.915153 0.368278 1.83585 0.368278 2.8793C0.368278 3.8 1.04345 4.1069 1.28897 4.22966L1.35035 4.1069C1.22759 3.98414 1.04345 3.86138 1.04345 3.4931C1.04345 3.24758 1.28897 2.81792 1.90277 2.81792C2.45519 2.81792 3.19174 3.06344 4.17382 3.37034C5.03313 3.61586 5.95383 3.8 6.44487 3.86138V5.76416L5.52417 6.56209V6.62347L6.44487 7.42141V10.0607C5.95383 10.3676 5.40141 10.429 4.91038 10.429C3.98968 10.429 3.19174 10.1835 2.51657 9.44694L5.03313 8.21935V3.98414L1.96415 5.33449C2.20967 4.53655 2.88485 3.98414 3.56002 3.61586L3.49864 3.43172C1.65725 3.92276 0 5.6414 0 7.72831C0 10.1835 2.02553 12.0249 4.29658 12.0249C6.75177 12.0249 8.34764 10.0607 8.34764 8.03521H8.22488C7.8566 8.83314 7.30418 9.5697 6.62901 9.93798V7.42141L7.61108 6.62347V6.56209L6.62901 5.76416V3.86138C7.5497 3.86138 8.4704 3.24758 8.4704 2.08137ZM3.13036 8.83314L2.39381 9.20142C1.96415 8.649 1.71863 7.91245 1.71863 6.86899C1.71863 6.43933 1.71863 5.9483 1.84139 5.58002L3.13036 5.02759V8.83314ZM9.63661 10.2449L8.83868 10.8587L8.96143 10.9814L9.32971 10.6745L10.6801 11.9021L12.5215 10.6745L12.4601 10.5518L11.969 10.8587L11.3552 10.2449V6.07106L11.8463 5.70278L12.8897 6.56209V10.3063C12.8897 12.6387 12.3987 13.007 11.3552 13.3752V13.5594C13.0739 13.6208 14.6697 13.0683 14.6697 10.0607V6.00968L15.2222 5.58002L15.0994 5.45726L14.6084 5.82554L13.0739 4.53655L11.3552 5.82554V0.792394H11.2325L9.08419 2.26551V2.38827C9.32971 2.51102 9.69799 2.63378 9.69799 3.30896L9.63661 10.2449ZM20.8691 9.5697L19.3346 10.7359L17.8001 9.50832V8.77176L20.685 6.80761V6.74623L19.2118 4.53655L16.0201 6.2552V10.3063L15.4063 10.7973L15.5291 10.9201L16.0815 10.4904L18.1684 12.0249L20.9305 9.81522L20.8691 9.5697ZM17.8001 8.52624V5.51864L17.9229 5.45726L19.2732 7.60555L17.8001 8.52624ZM32.5926 1.52895C32.5926 1.34481 32.5312 1.16067 32.4699 0.976533H32.3471C32.163 1.46757 31.9174 1.71309 31.3036 1.71309C30.7512 1.71309 30.3829 1.40619 30.1374 1.16067L28.3574 3.1862L28.4802 3.30896L29.094 2.75654C29.4622 3.06344 29.7691 3.30896 30.6285 3.37034V8.46486L27.0071 2.26551C26.7002 1.77447 26.2705 1.09929 25.4112 1.09929C24.4291 1.09929 23.5698 1.95861 23.6926 3.30896H23.8767C23.9381 2.94068 24.1222 2.51102 24.5519 2.51102C24.8588 2.51102 25.1657 2.81792 25.3498 3.12482V5.15035C24.245 5.15035 23.5084 5.6414 23.5084 6.56209C23.5084 7.05313 23.7539 7.78969 24.4905 7.97383V7.85107C24.3677 7.72831 24.3064 7.60555 24.3064 7.42141C24.3064 7.11451 24.5519 6.86899 24.9815 6.86899H25.2884V9.44694C23.9995 9.44694 22.956 10.1835 22.956 11.4111C22.956 12.5773 23.9381 13.1297 25.0429 13.0683V12.9456C24.3677 12.8842 24.0608 12.5773 24.0608 12.1476C24.0608 11.5952 24.4291 11.3497 24.9202 11.3497C25.4112 11.3497 25.8408 11.6566 26.1477 12.0249L27.9278 10.0607L27.805 9.93798L27.3753 10.429C26.7002 9.81522 26.3319 9.63108 25.5339 9.50832V3.37034L30.4443 11.9635H30.8126V3.37034C31.7333 3.30896 32.5926 2.5724 32.5926 1.52895ZM37.0733 9.5697L35.5388 10.7359L34.0043 9.50832V8.77176L36.8892 6.80761V6.74623L35.4161 4.53655L32.2243 6.2552V10.3063L31.6105 10.7973L31.7333 10.9201L32.2857 10.4904L34.3726 12.0249L37.1347 9.81522L37.0733 9.5697ZM34.0043 8.52624V5.51864L34.1271 5.45726L35.4775 7.60555L34.0043 8.52624ZM47.0782 5.21173L46.6486 5.51864L45.4823 4.53655L44.132 5.76416L44.6844 6.31658V10.9201L43.2113 9.99936V6.19382L43.7023 5.88692L42.2906 4.53655L40.9403 5.76416L41.4927 6.31658V10.7359L41.3085 10.8587L40.0196 9.93798V6.2552C40.0196 5.39587 39.5899 5.15035 39.0989 4.84345C38.6692 4.53655 38.4237 4.35242 38.4237 3.92276C38.4237 3.55448 38.792 3.37034 38.9761 3.24758V3.12482C38.4851 3.12482 37.1961 3.61586 37.1961 4.78207C37.1961 5.39587 37.503 5.6414 37.8099 5.9483C38.1168 6.2552 38.4237 6.50071 38.4237 7.05313V10.6132L37.7485 11.1042L37.8713 11.227L38.4851 10.7359L39.8968 11.9635L41.4313 10.9201L43.1499 11.9635L46.403 10.0607V5.9483L47.201 5.33449L47.0782 5.21173ZM58.4948 1.83585L57.881 2.38827L56.5307 1.16067L54.5052 2.63378V1.28343H54.321L54.3824 11.227C54.1983 11.227 53.6458 11.1042 53.2162 10.9814L53.0934 2.69516C53.0934 2.08137 52.6638 1.22205 51.5589 1.22205C50.4541 1.22205 49.7175 2.08137 49.7175 2.94068H49.9017C49.9631 2.5724 50.1472 2.26551 50.5155 2.26551C50.8838 2.26551 51.1907 2.51102 51.1907 3.30896V5.70278C50.0858 5.76416 49.4106 6.37796 49.4106 7.17589C49.4106 7.66693 49.6562 8.40348 50.3927 8.40348V8.28073C50.1472 8.15797 50.0858 7.97383 50.0858 7.85107C50.0858 7.48279 50.3927 7.36003 50.8838 7.36003H51.1293V11.1656C50.2086 11.4725 49.8403 12.1476 49.8403 12.8842C49.8403 13.9277 50.6382 14.6642 51.8658 14.6642C52.7252 14.6642 53.4617 14.5415 54.1983 14.3573C54.8121 14.2346 55.61 14.0504 55.9783 14.0504C56.4693 14.0504 56.6535 14.2959 56.6535 14.6028C56.6535 15.0325 56.4693 15.2166 56.2238 15.278V15.4008C57.2059 15.2166 57.8197 14.6028 57.8197 13.6821C57.8197 12.7614 56.899 12.209 55.9169 12.209C55.4259 12.209 54.3824 12.3932 53.6458 12.5159C52.7865 12.7001 51.9272 12.8228 51.6817 12.8228C51.252 12.8228 50.761 12.6387 50.761 12.0249C50.761 11.5338 51.1907 11.1042 52.2341 11.1042C52.7865 11.1042 53.4617 11.1656 54.1369 11.3497C54.8734 11.5338 55.5486 11.718 56.1624 11.718C57.0831 11.718 57.881 11.4111 57.881 10.1221V2.5724L58.6176 1.95861L58.4948 1.83585ZM55.9783 5.58002C55.7941 5.76416 55.5486 5.9483 55.2417 5.9483C54.9348 5.9483 54.6279 5.76416 54.5052 5.58002V2.8793L55.119 2.44965L55.9783 3.24758V5.58002ZM55.9783 7.42141C55.8555 7.29865 55.5486 7.11451 55.2417 7.11451C54.9348 7.11451 54.6279 7.29865 54.5052 7.42141V5.82554C54.6279 5.9483 54.9348 6.13244 55.2417 6.13244C55.5486 6.13244 55.8555 5.9483 55.9783 5.82554V7.42141ZM55.9783 10.3063C55.9783 10.7973 55.6714 11.2883 54.9962 11.2883H54.5052V7.66693C54.6279 7.54417 54.9348 7.36003 55.2417 7.36003C55.5486 7.36003 55.7941 7.54417 55.9783 7.66693V10.3063ZM64.3873 5.9483L62.4231 4.53655L59.4155 6.2552V10.2449L58.8017 10.7359L58.8631 10.8587L59.3542 10.4904L61.3183 11.9635L64.3873 10.1221V5.9483ZM61.0728 9.81522V5.39587L62.6073 6.50071V10.8587L61.0728 9.81522ZM70.2184 4.65931H70.0956C69.9115 4.78207 69.7273 4.90483 69.5432 4.90483C69.2977 4.90483 68.9908 4.78207 68.868 4.59793H68.7452L67.7018 5.76416L66.6583 4.59793L64.8169 5.82554L64.8783 5.9483L65.3694 5.6414L65.9832 6.31658V10.1835L65.1852 10.7973L65.308 10.9201L65.6763 10.6132L67.1494 11.8407L69.0521 10.5518L68.9908 10.429L68.4384 10.7359L67.7018 10.1221V5.82554C68.0087 6.13244 68.377 6.43933 68.8066 6.43933C69.6659 6.50071 70.157 5.6414 70.2184 4.65931ZM77.5839 10.5518L75.497 11.9635L72.6735 7.66693L74.6991 4.53655H74.8218C75.0674 4.78207 75.4356 5.02759 75.8653 5.02759C76.295 5.02759 76.6018 4.78207 76.786 4.53655H76.9087C76.8474 5.76416 75.9881 6.50071 75.3743 6.50071C74.7605 6.50071 74.4536 6.19382 74.0853 6.00968L73.9011 6.31658L76.9701 10.8587L77.5839 10.4904V10.5518ZM70.8322 10.2449L70.0342 10.8587L70.157 10.9814L70.5253 10.6745L71.8756 11.9021L73.717 10.6745L73.5942 10.5518L73.1032 10.8587L72.4894 10.2449V0.792394H72.428L70.2184 2.26551V2.38827C70.4639 2.51102 70.8322 2.5724 70.8322 3.30896V10.2449ZM87.773 2.08137C87.773 0.853773 86.6067 0.546875 85.686 0.546875V0.731014C86.2385 0.731014 86.6681 0.915153 86.6681 1.34481C86.6681 1.59033 86.484 1.95861 85.9316 1.95861C85.5019 1.95861 84.5812 1.71309 83.906 1.46757C83.1081 1.22205 82.3715 0.976533 81.7577 0.976533C80.5301 0.976533 79.6708 1.89723 79.6708 2.94068C79.6708 3.86138 80.346 4.16828 80.5915 4.29104L80.6529 4.16828C80.4688 4.04552 80.2846 3.92276 80.2846 3.55448C80.2846 3.30896 80.5301 2.8793 81.1439 2.8793C81.6964 2.8793 82.4329 3.12482 83.415 3.43172C84.2743 3.67724 85.195 3.86138 85.686 3.92276V5.82554L84.7653 6.62347V6.68485L85.686 7.48279V10.1221C85.195 10.429 84.6426 10.4904 84.1516 10.4904C83.2309 10.4904 82.4329 10.2449 81.7577 9.50832L84.2743 8.28073V3.98414L81.2053 5.33449C81.5122 4.53655 82.1874 3.98414 82.8012 3.55448L82.7398 3.43172C80.8984 3.92276 79.2412 5.58002 79.2412 7.66693C79.2412 10.1221 81.2667 11.9635 83.5378 11.9635C85.9929 11.9635 87.5888 9.99936 87.5888 7.97383H87.466C87.0978 8.77176 86.5454 9.50832 85.8702 9.8766V7.36003L86.8523 6.56209V6.50071L85.9316 5.70278V3.86138C86.8523 3.86138 87.773 3.24758 87.773 2.08137ZM82.4329 8.83314L81.6964 9.20142C81.2667 8.649 81.0212 7.91245 81.0212 6.86899C81.0212 6.43933 81.0826 5.9483 81.2053 5.58002L82.4943 5.02759L82.4329 8.83314ZM89.9212 1.46757H89.8599L88.6323 2.51102V2.5724L89.6757 3.73862H89.7985L91.0261 2.69516V2.63378L89.9212 1.46757ZM91.7626 10.5518L91.2716 10.8587L90.6578 10.2449V6.00968L91.2716 5.58002L91.1488 5.45726L90.7192 5.82554L89.6143 4.53655L87.8343 5.76416L87.9571 5.9483L88.3867 5.6414L88.9392 6.31658V10.3063L88.1412 10.9201L88.2026 11.0428L88.6323 10.7359L89.9826 11.9635L91.824 10.7359L91.7626 10.5518ZM102.013 10.4904L101.583 10.7973L100.908 10.1835V6.00968L101.522 5.51864L101.399 5.39587L100.908 5.82554L99.4965 4.53655L97.6551 5.82554L96.2433 4.53655L94.5247 5.82554L93.4199 4.53655L91.6399 5.76416L91.7012 5.9483L92.1309 5.6414L92.7447 6.31658V10.3063L92.2537 10.7973L93.6654 11.9635L95.0157 10.7359L94.4633 10.1835V6.00968L95.0157 5.6414L95.9364 6.50071V10.1835L95.4454 10.6745L96.8571 11.8407L98.2075 10.6132L97.6551 10.0607V6.00968L98.1461 5.70278L99.1282 6.56209V10.2449L98.6985 10.6745L100.11 11.9635L102.013 10.6745V10.4904ZM107.353 9.5697L105.819 10.7359L104.284 9.50832V8.77176L107.169 6.80761V6.74623L105.696 4.53655L102.504 6.2552V10.429L104.652 11.9635L107.414 9.75384L107.353 9.5697ZM104.284 8.52624V5.51864L104.407 5.45726L105.757 7.60555L104.284 8.52624ZM112.939 7.97383L111.772 7.05313C112.57 6.37796 112.877 5.45726 112.877 4.84345V4.47517H112.754C112.632 4.78207 112.386 5.08897 111.895 5.08897C111.404 5.08897 111.097 4.84345 110.79 4.47517L108.028 6.00968V8.21935L109.072 9.01728C108.028 9.93798 107.844 10.5518 107.844 11.0428C107.844 11.6566 108.151 12.0863 108.642 12.2704L108.703 12.1476C108.581 12.0249 108.458 11.9635 108.458 11.6566C108.458 11.4725 108.703 11.1656 109.194 11.1656C109.808 11.1656 110.177 11.5952 110.361 11.7794L113 10.1835V7.97383H112.939ZM112.263 6.13244C111.834 6.86899 110.913 7.60555 110.361 7.97383L109.686 7.42141V5.27311C109.931 5.88692 110.606 6.37796 111.281 6.37796C111.711 6.37796 111.957 6.31658 112.263 6.13244ZM111.22 11.0428C110.913 10.3676 110.177 9.8766 109.44 9.8766C109.256 9.8766 108.765 9.8766 108.274 10.1835C108.581 9.69246 109.379 8.83314 110.422 8.21935L111.159 8.83314L111.22 11.0428Z" fill="#080808"/>
</g>
<defs>
<clipPath id="clip0_1239_7201">
<rect width="113" height="14.8539" fill="white" transform="translate(0 0.546875)"/>
</clipPath>
</defs>
</svg>
