<svg width="83" height="26" viewBox="0 0 83 26" fill="none" xmlns="http://www.w3.org/2000/svg">
<g clip-path="url(#clip0_23_1681)">
<g clip-path="url(#clip1_23_1681)">
<path d="M53.7493 6.06913C52.4155 6.05705 51.1082 6.44192 49.9938 7.17478C48.8793 7.90763 48.008 8.95538 47.4906 10.1848C46.9732 11.4142 46.833 12.7696 47.0881 14.0789C47.3431 15.3881 47.9817 16.5919 48.9227 17.5372C49.8637 18.4825 51.0646 19.1266 52.3727 19.3876C53.6807 19.6486 55.0368 19.5147 56.2686 19.0029C57.5003 18.4911 58.552 17.6246 59.2899 16.5134C60.0279 15.4023 60.4187 14.0969 60.4127 12.763C60.4147 11.886 60.2439 11.0171 59.9102 10.2061C59.5764 9.395 59.0861 8.65762 58.4673 8.03603C57.8486 7.41444 57.1135 6.92082 56.3039 6.58333C55.4944 6.24585 54.6263 6.07112 53.7493 6.06913ZM53.8026 16.7687C53.2875 16.7754 52.7764 16.6791 52.2991 16.4855C51.8218 16.292 51.3879 16.0051 51.0229 15.6417C50.5668 15.1906 50.229 14.6339 50.0395 14.0211C49.85 13.4082 49.8146 12.758 49.9365 12.1282C50.0584 11.4984 50.3338 10.9084 50.7383 10.4105C51.1429 9.91261 51.664 9.52223 52.2555 9.27395C52.847 9.02568 53.4907 8.92719 54.1293 8.98722C54.768 9.04724 55.3821 9.26393 55.917 9.61807C56.4519 9.97221 56.8911 10.4529 57.1958 11.0174C57.5005 11.5819 57.6611 12.2129 57.6636 12.8544C57.6407 13.8789 57.2261 14.8556 56.5051 15.5837C55.7841 16.3118 54.8115 16.7359 53.7873 16.7687H53.8026ZM68.5383 9.23712C68.086 9.24307 67.6393 9.33832 67.2238 9.5174C66.8084 9.69649 66.4325 9.95588 66.1176 10.2807C65.8027 10.6055 65.555 10.9893 65.3889 11.4101C65.2228 11.8308 65.1414 12.2803 65.1495 12.7326V19.1219H62.248L62.2099 6.44228H65.1114V8.42989C65.5272 7.82249 66.0821 7.32317 66.7298 6.97348C67.3775 6.62379 68.0994 6.43384 68.8353 6.41943H69.6806V9.23712H68.5383ZM39.5999 6.55651L41.7703 15.2533L44.0549 6.53366H46.9563L43.3695 19.2513H40.5518L38.2672 10.387L36.0663 19.2894H33.241L29.4333 6.61743H32.2587L34.8022 15.2913L36.8355 6.57174L39.5999 6.55651ZM78.187 12.1767C79.2056 11.5815 80.0503 10.7296 80.6369 9.70605C81.2235 8.68249 81.5315 7.52301 81.5302 6.34328H78.6287C78.6409 7.36672 78.2471 8.35329 77.5334 9.08694C76.8197 9.8206 75.8444 10.2415 74.821 10.2576H74.4022L74.3717 0.250977H71.4702L71.5845 19.0914H74.4859V13.121H74.821C74.9747 13.1041 75.1298 13.1344 75.2659 13.2079C75.4019 13.2813 75.5123 13.3945 75.5825 13.5322L79.672 19.0686H83.0685L78.187 12.1767Z" fill="#080808"/>
<path d="M22.7319 6.22145C19.5791 6.22145 17.1879 8.31568 16.2893 11.636C14.8532 9.40014 13.7285 6.97902 12.9461 4.43945H9.63345V13.2276C9.63345 14.0638 9.30129 14.8657 8.71003 15.4569C8.11877 16.0482 7.31685 16.3804 6.48069 16.3804C5.64452 16.3804 4.8426 16.0482 4.25134 15.4569C3.66009 14.8657 3.32792 14.0638 3.32792 13.2276V4.43945L0 4.50038L0.0380769 13.2885C0.0350699 14.1445 0.20107 14.9926 0.526556 15.7843C0.852043 16.576 1.33061 17.2957 1.93482 17.902C2.53903 18.5083 3.25699 18.9894 4.04753 19.3177C4.83806 19.6459 5.68563 19.8149 6.54161 19.8149C7.3973 19.803 8.2422 19.6222 9.02778 19.2828C9.81337 18.9433 10.5241 18.452 11.1193 17.8371C11.7144 17.2222 12.1822 16.4957 12.4957 15.6994C12.8092 14.9031 12.9623 14.0528 12.9461 13.1971V11.6741C13.6427 13.0627 14.4554 14.3899 15.3754 15.6417L13.365 25.4198L16.7538 25.3817L18.216 18.3223C19.5806 19.1909 21.1676 19.6459 22.7852 19.6321C24.5286 19.5661 26.178 18.825 27.3852 17.5655C28.5923 16.306 29.2628 14.6267 29.2549 12.8821C29.247 11.1375 28.5613 9.4643 27.3428 8.2158C26.1242 6.9673 24.4682 6.24125 22.7243 6.19099L22.7319 6.22145ZM22.7776 16.2433C21.3974 16.207 20.0739 15.6868 19.0384 14.7735L19.3659 13.4484V13.3723C19.6096 11.9634 20.3407 9.5646 22.8309 9.5646C23.7096 9.56255 24.5534 9.9081 25.1783 10.5258C25.8032 11.1436 26.1584 11.9834 26.1664 12.8621C26.1289 13.7481 25.7596 14.5876 25.1318 15.214C24.5041 15.8404 23.6637 16.2078 22.7776 16.2433Z" fill="#080808"/>
</g>
</g>
<defs>
<clipPath id="clip0_23_1681">
<rect width="83" height="25.1688" fill="white" transform="translate(0 0.250977)"/>
</clipPath>
<clipPath id="clip1_23_1681">
<rect width="83" height="25.1688" fill="white" transform="translate(0 0.250977)"/>
</clipPath>
</defs>
</svg>
