<svg width="65" height="26" viewBox="0 0 65 26" fill="none" xmlns="http://www.w3.org/2000/svg">
<g clip-path="url(#clip0_3313_5901)">
<g clip-path="url(#clip1_3313_5901)">
<path d="M52.8067 8.59536C50.5565 8.59536 48.7214 6.76033 48.7214 4.51022C48.7214 2.26009 50.5565 0.425049 52.8067 0.425049C55.0569 0.425049 56.8918 2.26009 56.8918 4.51022C56.8918 6.76033 55.0569 8.59536 52.8067 8.59536Z" fill="#080808"/>
<path d="M64.8327 25.7715H60.409L59.3659 16.1813H59.1312L55.7886 25.7715H49.8465L46.5042 16.1813H46.2694L45.2261 25.7715H40.8024C40.8024 25.7715 41.6871 17.7051 42.0478 14.4391C42.3808 11.4026 43.97 9.86243 46.7663 9.86243H48.7707L52.7303 21.0529H52.8996L56.8591 9.86243H58.8472C61.6324 9.86243 63.2216 11.408 63.5712 14.4446C63.9316 17.5795 64.8383 25.7715 64.8383 25.7715M14.0741 9.86243L21.6491 25.7715H16.002L14.5766 22.3636H6.69572L5.2703 25.7715H0C0 25.7715 3.77385 17.9454 5.06822 15.0836C6.58651 11.7248 7.88086 9.86789 11.0376 9.86789H14.0741V9.86243ZM10.5515 13.1666L7.89725 19.3981H13.3751L10.7208 13.1666H10.5515ZM39.2296 21.2714C39.2296 24.073 37.1434 25.7715 33.2384 25.7715H22.8125V14.3299C22.8125 11.8012 24.2707 9.86243 27.4329 9.86243H32.8014C36.5153 9.86243 38.2902 11.3589 38.2902 13.9094C38.2902 15.6079 37.2144 16.7166 35.7287 17.2518V17.361C36.7774 17.4975 39.2296 18.6062 39.2296 21.2714ZM31.4252 16.2523C32.6377 16.2523 33.5441 15.7444 33.5441 14.5811C33.5441 13.5544 32.8014 12.9099 31.4252 12.9099H27.5857V16.2469H31.4252V16.2523ZM31.6163 22.7186C33.0637 22.7186 34.1395 22.1508 34.1395 20.8782C34.1395 19.5183 32.9981 19.0103 31.6163 19.0103H27.5803V22.7242H31.6163V22.7186Z" fill="#080808"/>
</g>
</g>
<defs>
<clipPath id="clip0_3313_5901">
<rect width="65" height="25.4618" fill="white" transform="translate(0 0.425049)"/>
</clipPath>
<clipPath id="clip1_3313_5901">
<rect width="65" height="25.4618" fill="white" transform="translate(0 0.425049)"/>
</clipPath>
</defs>
</svg>
