<svg width="120" height="23" viewBox="0 0 120 23" fill="none" xmlns="http://www.w3.org/2000/svg">
<g clip-path="url(#clip0_23_1701)">
<g clip-path="url(#clip1_23_1701)">
<path fill-rule="evenodd" clip-rule="evenodd" d="M10.3519 15.8574L13.6927 19.271L10.9058 22.2394C10.0021 23.2019 8.53653 23.2019 7.6328 22.2394L0.677796 14.8319C-0.225932 13.869 -0.225932 12.3085 0.677796 11.3459C1.58181 10.3834 3.04705 10.3834 3.95077 11.3459L9.26929 17.0105L10.3519 15.8574ZM11.2203 14.9325L14.1793 11.781L17.452 15.2669L14.7273 18.169L11.2203 14.9325Z" fill="#080808"/>
<path fill-rule="evenodd" clip-rule="evenodd" d="M24.6085 18.1031L21.1214 14.8453L29.3161 6.1174C30.2198 5.15487 31.685 5.15487 32.5891 6.1174C33.4928 7.07993 33.4928 8.6405 32.5891 9.60334L24.6085 18.1031ZM23.524 19.2582L20.7254 22.2389C19.8214 23.2014 18.3562 23.2014 17.4525 22.2389L5.58771 9.60211C4.68398 8.63927 4.68398 7.0787 5.58771 6.11617C6.49144 5.15333 7.95667 5.15333 8.86069 6.11617L19.089 17.01L20.2394 15.7847L23.524 19.2582Z" fill="#080808"/>
<path fill-rule="evenodd" clip-rule="evenodd" d="M19.5801 14.0462L22.8376 10.5441L28.9086 17.0102L34.226 11.3468C35.13 10.3843 36.5952 10.3843 37.499 11.3468C38.4027 12.3097 38.4027 13.8702 37.499 14.8328L30.5451 22.2391C29.6414 23.2016 28.1762 23.2016 27.2724 22.2391L19.5801 14.0462ZM18.2306 12.6089L10.4976 4.37279C9.59389 3.41026 9.59389 1.8497 10.4976 0.887167C11.4016 -0.0756704 12.8669 -0.0756704 13.7706 0.887167L21.5116 9.13186L18.2306 12.6089Z" fill="#080808"/>
<path fill-rule="evenodd" clip-rule="evenodd" d="M27.6793 0.888401C26.7756 -0.0741286 25.3103 -0.0741286 24.4063 0.888401L14.1792 11.7809L17.4522 15.2669L27.6793 4.37434C28.583 3.4115 28.583 1.85093 27.6793 0.888401Z" fill="#080808"/>
<path fill-rule="evenodd" clip-rule="evenodd" d="M50.1575 2.59055H47.3115V20.3959H57.7392V17.7069H50.1575V2.59055ZM63.8986 7.94428C65.6289 7.94428 66.7901 8.69525 67.4276 9.6158L67.5642 8.18653H70.0231V20.3959H67.5642L67.4276 18.9666C66.7901 19.8872 65.6289 20.6382 63.8986 20.6382C60.7794 20.6382 58.662 17.9492 58.662 14.2912C58.662 10.609 60.7794 7.94428 63.8986 7.94428ZM64.4905 10.5121C62.7147 10.5121 61.4396 11.9899 61.4396 14.2912C61.4396 16.5926 62.7147 18.0703 64.4905 18.0703C65.8566 18.0703 66.6763 17.2951 67.291 16.2534V12.329C66.6763 11.2873 65.8566 10.5121 64.4905 10.5121ZM76.9111 4.0925H74.1789V8.18653H72.016V10.6575H74.1789V16.0839C74.1789 19.0393 75.841 20.6382 78.4593 20.6382C79.5977 20.6382 80.4401 20.299 81.0093 19.9114L80.2807 17.6343C79.9392 17.8523 79.4383 18.0219 78.7097 18.0219C77.6397 18.0219 76.9111 17.2951 76.9111 16.0596V10.6575H80.3718V8.18653H76.9111V4.0925ZM86.3263 4.0925H83.5941V8.18653H81.4312V10.6575H83.5941V16.0839C83.5941 19.0393 85.2562 20.6382 87.8745 20.6382C89.0129 20.6382 89.8553 20.299 90.4245 19.9114L89.6959 17.6343C89.3544 17.8523 88.8535 18.0219 88.1249 18.0219C87.0548 18.0219 86.3263 17.2951 86.3263 16.0596V10.6575H89.787V8.18653H86.3263V4.0925ZM94.9901 8.18653H92.258V20.3959H94.9901V8.18653ZM93.624 2.49365C92.6678 2.49365 91.9392 3.24463 91.9392 4.2863C91.9392 5.32798 92.6678 6.07895 93.624 6.07895C94.603 6.07895 95.3316 5.32798 95.3316 4.2863C95.3316 3.24463 94.603 2.49365 93.624 2.49365ZM103.244 7.94428C99.7151 7.94428 97.37 10.609 97.37 14.2912C97.37 17.9492 99.7379 20.6382 103.267 20.6382C105.339 20.6382 106.91 19.6449 107.934 17.9492L105.976 16.3261C105.43 17.2951 104.542 18.0945 103.29 18.0945C101.263 18.0945 100.148 16.423 100.148 14.2912C100.148 12.1352 101.218 10.4879 103.267 10.4879C104.542 10.4879 105.384 11.2631 105.908 12.2321L107.889 10.6333C106.864 8.9375 105.339 7.94428 103.244 7.94428ZM114.617 7.94428C118.146 7.94428 119.877 10.7544 119.877 14.1701V15.1875H111.771C111.84 17.1255 112.933 18.1914 114.845 18.1914C116.188 18.1914 117.167 17.5616 117.691 16.7864L119.581 18.4337C118.442 19.8872 116.94 20.6382 114.822 20.6382C111.27 20.6382 108.994 17.9734 108.994 14.3154C108.994 10.6333 111.316 7.94428 114.617 7.94428ZM114.572 10.2699C112.955 10.2699 111.862 11.4085 111.771 13.1042H117.19C117.122 11.4327 116.211 10.2699 114.572 10.2699Z" fill="#080808"/>
</g>
</g>
<defs>
<clipPath id="clip0_23_1701">
<rect width="120" height="22.8" fill="white" transform="translate(0 0.161133)"/>
</clipPath>
<clipPath id="clip1_23_1701">
<rect width="120" height="22.8" fill="white" transform="translate(0 0.161133)"/>
</clipPath>
</defs>
</svg>
