<svg fill="none" height="74" viewbox="0 0 106 74" width="106" xmlns="http://www.w3.org/2000/svg"><path d="M95.9994 65.4534L62.6959 7.71114C60.1698 3.33259 55.4999 0.634277 50.4459 0.634277H37.2771L74.6215 65.4402C79.3659 73.6742 91.2451 73.6808 95.9994 65.4534Z" fill="#FC01B4"></path><path d="M58.766 66.9615L25.4625 9.2192C22.9363 4.84065 18.2664 2.14233 13.2125 2.14233H0.0437012L37.388 66.9482C42.1324 75.1822 54.0116 75.1889 58.766 66.9615Z" fill="#FC01B4"></path><path d="M100.457 20.8385C99.1281 21.547 97.6101 21.9493 95.9994 21.9493V21.9476C90.6177 21.9476 86.2772 17.4648 86.5205 12.0235C86.7357 7.21947 90.5945 3.29615 95.3952 2.99818C97.236 2.88396 98.9709 3.29615 100.469 4.09737L100.472 4.09902C103.455 5.69649 105.487 8.8368 105.487 12.4605C105.487 16.0842 103.455 19.2311 100.472 20.8302C100.467 20.8335 100.462 20.8352 100.457 20.8385Z" fill="#FC01B4"></path></svg>