<svg fill="none" height="49" viewbox="0 0 71 49" width="71" xmlns="http://www.w3.org/2000/svg"><g id="Icon-D"><path d="M64.5148 43.1497L42.4636 4.91699C40.791 2.01783 37.6989 0.231201 34.3525 0.231201H25.6331L50.3599 43.141C53.5013 48.5929 61.3668 48.5973 64.5148 43.1497Z" fill="url(#paint0_linear_2109_3)"></path><path d="M39.8615 44.1483L17.8103 5.91551C16.1377 3.01635 13.0456 1.22973 9.69926 1.22973H0.979858L25.7066 44.1395C28.848 49.5914 36.7135 49.5958 39.8615 44.1483Z" fill="url(#paint1_linear_2109_3)"></path><path d="M67.4665 13.609C66.5864 14.0781 65.5813 14.3445 64.5148 14.3445V14.3434C60.9514 14.3434 58.0774 11.3751 58.2386 7.77229C58.381 4.59144 60.936 1.9937 64.1147 1.79641C65.3336 1.72078 66.4823 1.9937 67.4742 2.52421L67.4764 2.52531C69.4516 3.58303 70.7965 5.66232 70.7965 8.06166C70.7965 10.461 69.4516 12.5447 67.4764 13.6035C67.4731 13.6057 67.4698 13.6068 67.4665 13.609Z" fill="url(#paint2_linear_2109_3)"></path></g><defs><lineargradient gradientunits="userSpaceOnUse" id="paint0_linear_2109_3" x1="0.979858" x2="70.7965" y1="24.2312" y2="24.2312"><stop stop-color="#FC01B4"></stop><stop offset="1" stop-color="#3E0B91"></stop></lineargradient><lineargradient gradientunits="userSpaceOnUse" id="paint1_linear_2109_3" x1="0.979858" x2="70.7965" y1="24.2312" y2="24.2312"><stop stop-color="#FC01B4"></stop><stop offset="1" stop-color="#3E0B91"></stop></lineargradient><lineargradient gradientunits="userSpaceOnUse" id="paint2_linear_2109_3" x1="0.979858" x2="70.7965" y1="24.2312" y2="24.2312"><stop stop-color="#FC01B4"></stop><stop offset="1" stop-color="#3E0B91"></stop></lineargradient></defs></svg>