<svg fill="none" height="49" viewbox="0 0 70 49" width="70" xmlns="http://www.w3.org/2000/svg"><g id="Icon-P"><path d="M63.598 43.1497L41.5469 4.91699C39.8742 2.01783 36.7822 0.231201 33.4358 0.231201H24.7164L49.4431 43.141C52.5845 48.5929 60.4501 48.5973 63.598 43.1497Z" fill="#131212"></path><path d="M38.9447 44.1483L16.8936 5.91551C15.221 3.01635 12.1289 1.22973 8.78251 1.22973H0.0631104L24.7898 44.1395C27.9312 49.5914 35.7968 49.5958 38.9447 44.1483Z" fill="#131212"></path><path d="M66.5498 13.609C65.6696 14.0781 64.6645 14.3445 63.598 14.3445V14.3434C60.0346 14.3434 57.1607 11.3751 57.3218 7.77229C57.4643 4.59144 60.0193 1.9937 63.198 1.79641C64.4168 1.72078 65.5655 1.9937 66.5575 2.52421L66.5597 2.52531C68.5348 3.58303 69.8797 5.66232 69.8797 8.06166C69.8797 10.461 68.5348 12.5447 66.5597 13.6035C66.5564 13.6057 66.5531 13.6068 66.5498 13.609Z" fill="#131212"></path></g></svg>