<svg fill="none" height="69" viewbox="0 0 224 69" width="224" xmlns="http://www.w3.org/2000/svg"><path d="M36.7656 64.2447L16.1398 28.4832C14.5753 25.7715 11.6831 24.1003 8.55301 24.1003H0.397217L23.5256 64.2365C26.464 69.336 33.8211 69.3401 36.7656 64.2447Z" fill="#131212"></path><path d="M59.8252 63.3107L39.1994 27.5493C37.6349 24.8375 34.7426 23.1664 31.6126 23.1664H23.4568L46.5852 63.3025C49.5236 68.4021 56.8807 68.4062 59.8252 63.3107Z" fill="#131212"></path><path d="M59.8256 36.3674C60.8231 36.3674 61.7633 36.1182 62.5865 35.6794C62.5896 35.6774 62.5927 35.6763 62.5957 35.6743C64.4432 34.6839 65.7012 32.7349 65.7012 30.4907C65.7012 28.2464 64.4432 26.3015 62.5957 25.3122C62.5957 25.3122 62.5951 25.3118 62.5937 25.3112C61.6659 24.8149 60.5914 24.5597 59.4513 24.6304C56.4781 24.8149 54.0883 27.2448 53.955 30.22C53.8043 33.59 56.4925 36.3663 59.8256 36.3663V36.3674Z" fill="#131212"></path><path d="M79.3961 31.441C78.945 31.1991 78.4231 31.0719 77.8705 31.0986C76.388 31.1683 75.169 32.3658 75.0788 33.8473C74.9753 35.5543 76.3286 36.9691 78.012 36.9691C78.5103 36.9691 78.9809 36.8451 79.392 36.6257C79.3941 36.6257 79.3951 36.6246 79.3961 36.6236C80.3198 36.1284 80.9493 35.1544 80.9493 34.0318C80.9493 32.9092 80.3209 31.9372 79.3961 31.4431V31.441Z" fill="#FC01B4"></path><path d="M86.8601 4.41879C83.8777 1.3687 81.3627 0 77.0516 0C72.7405 0 69.4433 1.26822 66.7038 3.80467C63.9644 6.34112 62.5957 9.54602 62.5957 13.4194L62.6757 22.3872C62.7249 22.8875 63.176 23.313 63.6548 23.56C63.6579 23.5621 63.662 23.5631 63.665 23.5652C63.665 23.5652 63.6661 23.5652 63.6681 23.5652C66.2302 24.8888 67.9741 27.4929 67.9741 30.4897C67.9741 33.4864 66.2302 36.0977 63.6681 37.4213C63.664 37.4244 63.6599 37.4254 63.6558 37.4285C63.6527 37.4305 63.6486 37.4316 63.6455 37.4336C63.0478 37.7391 62.6511 38.3246 62.6019 38.9858V38.991L62.6224 55.8203C62.6295 61.8825 67.399 66.8263 73.3874 67.1164C73.6775 67.1308 73.9195 66.896 73.9195 66.6058V13.9053H73.9051V12.349C73.9051 10.2422 74.7776 9.18924 76.5236 9.18924C77.2925 9.18924 77.9261 9.40454 78.4234 9.83412C79.1441 10.4575 80.2022 10.4985 81.0049 9.98688L86.7422 5.45633C87.1031 5.22668 87.1605 4.72329 86.8611 4.41777L86.8601 4.41879Z" fill="#FC01B4"></path><path d="M107.023 47.5574C106.553 47.5574 106.21 47.6861 105.998 47.9388C105.786 48.1938 105.607 48.5228 105.464 48.928C105.123 49.7861 104.615 50.4392 103.943 50.8825C103.271 51.3259 102.451 51.5476 101.479 51.5476C100.582 51.5476 99.8005 51.3521 99.133 50.9612C98.4656 50.5703 97.9484 49.9792 97.5861 49.1854C97.2238 48.3917 97.0402 47.4001 97.0402 46.2059C97.0402 44.4182 97.4526 43.0381 98.2749 42.068C99.0973 41.0978 100.203 40.6116 101.593 40.6116C102.465 40.6116 103.199 40.7999 103.795 41.1765C104.391 41.5531 104.909 42.1228 105.349 42.8832C105.614 43.3432 105.855 43.6697 106.072 43.858C106.289 44.0464 106.613 44.1417 107.044 44.1417C107.43 44.1417 107.762 44.0058 108.033 43.7341C108.305 43.4624 108.443 43.1477 108.443 42.7902C108.443 42.1419 108.162 41.4506 107.602 40.7212C107.039 39.9918 106.231 39.3792 105.178 38.8835C104.122 38.3877 102.921 38.1398 101.569 38.1398C100.461 38.1398 99.4191 38.3209 98.4394 38.6856C97.4598 39.0479 96.6064 39.5771 95.8794 40.2731C95.15 40.9691 94.5923 41.8034 94.2014 42.783C93.8104 43.7603 93.615 44.8687 93.615 46.1034C93.615 46.8638 93.6937 47.5836 93.8486 48.2606C94.0035 48.9375 94.2371 49.5739 94.5494 50.1722C94.8616 50.7681 95.2358 51.3092 95.6768 51.7907C96.1702 52.3222 96.7113 52.7489 97.2977 53.0731C97.8864 53.3973 98.5395 53.638 99.2618 53.7905C99.9816 53.9431 100.783 54.0218 101.664 54.0218C102.825 54.0218 103.843 53.8501 104.715 53.5093C105.588 53.166 106.305 52.7227 106.865 52.1745C107.428 51.6262 107.838 51.0685 108.1 50.4988C108.362 49.9291 108.493 49.3999 108.493 48.9113C108.493 48.5275 108.35 48.2058 108.062 47.9483C107.774 47.6909 107.428 47.5598 107.025 47.5598L107.023 47.5574Z" fill="#131212"></path><path d="M125.658 39.1099C124.416 38.4639 122.931 38.1398 121.203 38.1398C119.928 38.1398 118.791 38.3233 117.787 38.6904C116.786 39.0575 115.935 39.5866 115.237 40.2779C114.538 40.9691 114.005 41.8081 113.637 42.7926C113.27 43.777 113.084 44.8592 113.084 46.0391C113.084 47.2189 113.261 48.263 113.614 49.2545C113.966 50.2461 114.488 51.0947 115.18 51.8002C115.871 52.5058 116.731 53.0516 117.763 53.4402C118.796 53.8263 119.964 54.0218 121.27 54.0218C122.576 54.0218 123.746 53.8335 124.764 53.4568C125.782 53.0802 126.638 52.5344 127.336 51.8217C128.034 51.109 128.556 50.2676 128.907 49.2974C129.255 48.3273 129.431 47.2475 129.431 46.0605C129.431 44.4539 129.112 43.0572 128.475 41.8654C127.839 40.6759 126.9 39.7559 125.658 39.1099ZM125.362 49.1091C124.933 49.941 124.357 50.5536 123.632 50.9517C122.907 51.3497 122.114 51.5476 121.248 51.5476C120.574 51.5476 119.952 51.4332 119.387 51.2019C118.822 50.9707 118.321 50.6251 117.885 50.1603C117.449 49.6955 117.11 49.1115 116.872 48.406C116.634 47.7004 116.514 46.9115 116.514 46.0391C116.514 45.1667 116.634 44.392 116.872 43.6983C117.11 43.0023 117.437 42.4327 117.852 41.9845C118.264 41.5364 118.757 41.1979 119.332 40.962C119.904 40.7284 120.528 40.6116 121.203 40.6116C122.152 40.6116 122.991 40.8237 123.725 41.2456C124.457 41.6675 125.022 42.292 125.415 43.1144C125.808 43.9391 126.006 44.9116 126.006 46.0367C126.006 47.2523 125.791 48.2749 125.362 49.1068V49.1091Z" fill="#131212"></path><path d="M150.03 38.7548C149.651 38.5212 149.139 38.4044 148.493 38.4044H147.446C146.817 38.4044 146.36 38.4569 146.076 38.5617C145.792 38.6666 145.58 38.8549 145.444 39.1267C145.308 39.3984 145.151 39.8417 144.977 40.4567L142.553 48.8685L140.129 40.4567C139.955 39.8417 139.8 39.3984 139.662 39.1267C139.526 38.8549 139.314 38.6666 139.03 38.5617C138.746 38.4569 138.289 38.4044 137.659 38.4044H136.613C135.967 38.4044 135.457 38.5212 135.076 38.7548C134.694 38.9884 134.506 39.4413 134.506 40.1111V52.2627C134.506 52.8562 134.649 53.2972 134.937 53.588C135.226 53.8764 135.598 54.0218 136.053 54.0218C136.508 54.0218 136.901 53.8741 137.185 53.5809C137.469 53.2877 137.612 52.8467 137.612 52.2603V41.6604L140.286 51.4428C140.377 51.7646 140.467 52.072 140.553 52.37C140.641 52.6679 140.76 52.9373 140.911 53.1828C141.063 53.4283 141.275 53.6285 141.547 53.7859C141.821 53.9432 142.155 54.0218 142.548 54.0218C143.073 54.0218 143.483 53.9003 143.778 53.6548C144.074 53.4092 144.276 53.1399 144.386 52.8419C144.496 52.5464 144.639 52.0792 144.813 51.4428L147.487 41.6604V52.2603C147.487 52.8467 147.63 53.2877 147.918 53.5809C148.207 53.8741 148.574 54.0218 149.022 54.0218C149.501 54.0218 149.88 53.8741 150.166 53.5809C150.452 53.2877 150.593 52.8467 150.593 52.2603V40.1087C150.593 39.4389 150.402 38.986 150.023 38.7524L150.03 38.7548Z" fill="#131212"></path><path d="M167.607 39.5462C167.111 39.141 166.52 38.8502 165.839 38.6762C165.147 38.495 164.161 38.4044 162.878 38.4044H158.542C157.799 38.4044 157.255 38.5522 156.914 38.8454C156.573 39.1386 156.402 39.6272 156.402 40.3113V52.1483C156.402 52.7633 156.557 53.2281 156.869 53.5475C157.179 53.8645 157.589 54.0242 158.099 54.0242C158.609 54.0242 158.988 53.8645 159.305 53.5427C159.622 53.2209 159.784 52.749 159.784 52.1292V47.7815H162.881C164.952 47.7815 166.511 47.3787 167.557 46.5707C168.604 45.765 169.128 44.578 169.128 43.0143C169.128 42.2802 168.999 41.6223 168.742 41.0335C168.484 40.4472 168.105 39.9514 167.61 39.5462H167.607ZM165.281 44.4469C165 44.7949 164.592 45.0475 164.058 45.2001C163.522 45.3526 162.857 45.4313 162.061 45.4313H159.784V40.738H162.061C163.569 40.738 164.568 40.9644 165.054 41.4197C165.486 41.8464 165.703 42.397 165.703 43.0739C165.703 43.6388 165.562 44.0965 165.281 44.4469Z" fill="#131212"></path><path d="M181.646 41.0429C181.441 40.5471 181.272 40.1515 181.141 39.8535C181.008 39.558 180.845 39.2791 180.652 39.0216C180.459 38.7642 180.204 38.5521 179.89 38.3876C179.575 38.2231 179.182 38.1421 178.712 38.1421C178.243 38.1421 177.861 38.2231 177.547 38.3876C177.232 38.5521 176.977 38.7666 176.784 39.0312C176.591 39.2958 176.407 39.6295 176.238 40.0323C176.066 40.4327 175.921 40.7784 175.799 41.0644L171.53 51.0374C171.356 51.4355 171.23 51.7453 171.154 51.9694C171.077 52.1935 171.039 52.4104 171.039 52.6177C171.039 52.9801 171.201 53.3066 171.528 53.5926C171.854 53.8787 172.229 54.0217 172.655 54.0217C173.156 54.0217 173.516 53.8882 173.738 53.6189C173.957 53.3495 174.224 52.8323 174.534 52.0624L175.33 50.0935H182.114L182.91 52.0218C183.017 52.2602 183.143 52.5343 183.291 52.8442C183.439 53.1541 183.577 53.3853 183.706 53.5354C183.835 53.6856 183.994 53.8048 184.185 53.8906C184.376 53.9764 184.602 54.0217 184.869 54.0217C185.324 54.0217 185.713 53.8739 186.035 53.576C186.356 53.2804 186.518 52.9538 186.518 52.5963C186.518 52.2388 186.347 51.7048 186.006 50.9516L181.646 41.0429ZM176.217 47.7576L178.686 41.4196L181.201 47.7576H176.214H176.217Z" fill="#131212"></path><path d="M203.769 38.1422C203.299 38.1422 202.925 38.2899 202.648 38.5879C202.372 38.8858 202.234 39.3292 202.234 39.9227V49.0567L195.734 40.0061C195.552 39.7416 195.376 39.4865 195.204 39.241C195.033 38.9955 194.866 38.7976 194.704 38.6451C194.539 38.4925 194.351 38.3686 194.134 38.278C193.917 38.1874 193.658 38.1422 193.355 38.1422C192.969 38.1422 192.606 38.2423 192.273 38.4401C191.939 38.6379 191.701 38.8954 191.555 39.21C191.434 39.496 191.374 39.8917 191.374 40.3947V52.2412C191.374 52.8204 191.517 53.2614 191.805 53.5665C192.094 53.8692 192.478 54.0218 192.954 54.0218C193.431 54.0218 193.796 53.8716 194.094 53.5713C194.389 53.2709 194.537 52.8276 194.537 52.2412V43.2431L200.877 52.1888C201.059 52.4343 201.242 52.6726 201.423 52.9062C201.604 53.1398 201.802 53.3448 202.014 53.5188C202.227 53.6928 202.455 53.8215 202.699 53.9002C202.942 53.9812 203.213 54.0194 203.519 54.0194C204.732 54.0194 205.34 53.3448 205.34 51.9981V39.9203C205.34 39.3268 205.199 38.8811 204.918 38.5855C204.636 38.2876 204.253 38.1398 203.769 38.1398V38.1422Z" fill="#131212"></path><path d="M222.115 38.1421C221.841 38.1421 221.61 38.1874 221.422 38.278C221.231 38.3685 221.059 38.4996 220.904 38.6712C220.75 38.8429 220.607 39.0264 220.478 39.2219C220.349 39.4173 220.189 39.6581 219.999 39.9441L216.845 44.6064L213.727 39.9441C213.251 39.2242 212.891 38.7451 212.652 38.5044C212.414 38.2637 212.061 38.1421 211.599 38.1421C211.136 38.1421 210.788 38.2708 210.488 38.5306C210.188 38.788 210.038 39.0955 210.038 39.4531C210.038 39.67 210.111 39.925 210.259 40.2182C210.407 40.5114 210.66 40.919 211.017 41.4434L215.091 47.257V52.1267C215.091 52.7703 215.246 53.247 215.558 53.5569C215.868 53.8668 216.276 54.0241 216.776 54.0241C217.277 54.0241 217.675 53.8667 217.994 53.5521C218.313 53.2375 218.471 52.7631 218.471 52.1267V47.257L222.647 41.36C222.995 40.8785 223.243 40.5019 223.386 40.2277C223.529 39.956 223.603 39.6819 223.603 39.4102C223.603 39.0741 223.46 38.7809 223.176 38.5258C222.892 38.2708 222.537 38.1445 222.113 38.1445L222.115 38.1421Z" fill="#131212"></path></svg>