<svg fill="none" height="126" viewbox="0 0 126 126" width="126" xmlns="http://www.w3.org/2000/svg"><path d="M95.0523 66.0997L49.507 92.3954C48.2206 93.138 46.6127 92.2097 46.6127 90.7243L46.6127 38.1331C46.6127 36.6477 48.2206 35.7194 49.507 36.4621L95.0523 62.7577C96.3387 63.5004 96.3387 65.3571 95.0523 66.0997Z" fill="#DADADA" id="triangulo" stroke="#FC01B4" stroke-width="2"></path><g id="text-player"><path d="M46.5066 9.11061L46.9157 2.74096L49.3222 2.13659L52.757 7.54085L51.2065 7.93025L48.4714 3.46627L48.94 3.52029L47.874 3.788L48.2695 3.51698L48.0086 8.73339L46.5066 9.11061ZM47.7062 7.35849L47.8502 6.01745L50.0871 5.45567L50.8476 6.56956L47.7062 7.35849Z" fill="#131212"></path><path d="M59.897 5.16868L59.8392 3.83773L60.8374 3.79441C61.026 3.78623 61.188 3.74308 61.3235 3.66497C61.4588 3.58132 61.5622 3.46848 61.6338 3.32647C61.7055 3.18447 61.7372 3.01919 61.729 2.83064C61.7206 2.63654 61.6745 2.47186 61.5909 2.33659C61.5072 2.20132 61.3945 2.10064 61.2527 2.03457C61.111 1.96849 60.9458 1.93954 60.7573 1.94773L59.7591 1.99105L59.7013 0.660107L60.6579 0.618589C61.1792 0.595966 61.6322 0.6652 62.017 0.826293C62.4071 0.9816 62.7119 1.2184 62.9313 1.53668C63.1507 1.85497 63.2702 2.24148 63.29 2.69622L63.2957 2.82931C63.3152 3.2785 63.2295 3.67115 63.0385 4.00724C62.8475 4.34334 62.5645 4.60842 62.1896 4.80249C61.8202 4.99631 61.3749 5.10454 60.8536 5.12716L59.897 5.16868ZM58.5861 6.84237L58.3204 0.720036L59.8677 0.652886L60.1334 6.77522L58.5861 6.84237Z" fill="#131212"></path><path d="M70.0288 7.08889L70.993 1.08771L72.4728 1.32546L71.5085 7.32664L70.0288 7.08889ZM71.3441 7.30022L71.5449 6.05066L74.0769 6.45748L73.8761 7.70704L71.3441 7.30022ZM71.7338 4.87509L71.9345 3.62553L74.2939 4.00461L74.0931 5.25417L71.7338 4.87509ZM72.1076 2.54861L72.3083 1.29905L74.791 1.69794L74.5902 2.9475L72.1076 2.54861Z" fill="#131212"></path><path d="M81.1875 9.63378L83.3577 3.90282L84.8061 4.45127L82.6359 10.1822L81.1875 9.63378ZM84.6137 10.9312L83.9315 7.91286L85.5044 8.50848L86.28 11.5622L84.6137 10.9312ZM82.9304 8.29943L83.352 7.18595L84.7147 7.70196C84.886 7.76683 85.0467 7.78911 85.1969 7.76881C85.347 7.7485 85.4794 7.68883 85.5941 7.5898C85.7139 7.49274 85.8053 7.36115 85.8682 7.19503C85.9331 7.02373 85.9528 6.86202 85.9273 6.70991C85.907 6.55977 85.8473 6.42737 85.7483 6.31271C85.6492 6.19805 85.5141 6.10828 85.3428 6.04341L83.9801 5.5274L84.4401 4.31268L85.7171 4.79626C86.2103 4.98301 86.6074 5.21947 86.9086 5.50565C87.2117 5.78664 87.4043 6.10885 87.4863 6.47228C87.5702 6.83053 87.5316 7.22248 87.3704 7.64815L87.3232 7.77274C87.1621 8.19841 86.9288 8.51665 86.6234 8.72746C86.3252 8.93504 85.9694 9.04369 85.5562 9.0534C85.1502 9.05989 84.7005 8.96976 84.2074 8.78301L82.9304 8.29943Z" fill="#131212"></path><path d="M92.6325 15.0233L95.2525 10.8875L96.5608 11.7163L93.9408 15.8521L92.6325 15.0233ZM93.7567 10.1371L94.4785 8.99762L98.6002 11.6087L97.8784 12.7481L93.7567 10.1371Z" fill="#131212"></path><path d="M100.857 21.1119L105.076 16.7372L106.155 17.7777L101.935 22.1524L100.857 21.1119ZM101.815 22.0368L102.694 21.1259L104.54 22.9063L103.661 23.8172L101.815 22.0368ZM103.521 20.2689L104.399 19.358L106.119 21.017L105.241 21.9279L103.521 20.2689ZM105.156 18.573L106.035 17.6621L107.845 19.4078L106.966 20.3187L105.156 18.573Z" fill="#131212"></path><path d="M115.176 41.6806C114.961 41.1689 114.861 40.6872 114.876 40.2354C114.896 39.7814 114.996 39.3688 115.177 38.9976C115.363 38.6242 115.6 38.3051 115.886 38.0403C116.172 37.7755 116.473 37.5764 116.791 37.443L116.959 37.372C117.312 37.2235 117.685 37.1422 118.076 37.1281C118.473 37.1119 118.863 37.1736 119.247 37.3132C119.631 37.4529 119.983 37.675 120.304 37.9797C120.627 38.2895 120.893 38.6926 121.102 39.1889C121.308 39.6801 121.408 40.1469 121.401 40.5893C121.397 41.0368 121.31 41.4466 121.142 41.8186C120.973 42.1906 120.744 42.5127 120.455 42.7848C120.173 43.0598 119.856 43.2716 119.503 43.42L119.334 43.491C119.017 43.6245 118.662 43.6982 118.271 43.7123C117.881 43.7315 117.488 43.6771 117.091 43.549C116.699 43.4188 116.334 43.202 115.996 42.8987C115.662 42.5932 115.389 42.1871 115.176 41.6806ZM116.512 41.119C116.615 41.3646 116.749 41.5674 116.912 41.7274C117.076 41.8874 117.261 42.0053 117.467 42.0811C117.674 42.1568 117.889 42.1896 118.114 42.1795C118.344 42.1672 118.574 42.1127 118.804 42.0158C119.049 41.9125 119.256 41.7806 119.423 41.6199C119.593 41.4644 119.72 41.2874 119.805 41.089C119.89 40.8906 119.93 40.678 119.925 40.4513C119.92 40.2246 119.867 39.991 119.766 39.7505C119.663 39.5049 119.532 39.301 119.373 39.1388C119.215 38.9767 119.035 38.8566 118.834 38.7787C118.632 38.7008 118.417 38.668 118.187 38.6803C117.957 38.6926 117.72 38.7504 117.474 38.8536C117.244 38.9505 117.044 39.0767 116.875 39.2322C116.71 39.3856 116.583 39.5626 116.493 39.7631C116.402 39.9637 116.357 40.1784 116.357 40.4073C116.357 40.6361 116.409 40.8734 116.512 41.119Z" fill="#131212"></path><path d="M121.242 62.9745L122.574 62.9842L122.567 63.9833C122.566 64.1721 122.601 64.3361 122.672 64.4754C122.748 64.6147 122.856 64.7237 122.994 64.8024C123.132 64.8812 123.296 64.9212 123.485 64.9226C123.679 64.924 123.846 64.8864 123.985 64.8097C124.124 64.733 124.231 64.6255 124.304 64.4873C124.377 64.349 124.414 64.1855 124.416 63.9968L124.423 62.9977L125.755 63.0074L125.748 63.9649C125.744 64.4867 125.652 64.9356 125.472 65.3118C125.297 65.6935 125.045 65.9859 124.716 66.1889C124.387 66.3919 123.995 66.4917 123.54 66.4884L123.406 66.4874C122.957 66.4841 122.569 66.3786 122.243 66.1708C121.917 65.9631 121.667 65.667 121.492 65.2827C121.317 64.904 121.231 64.4537 121.235 63.932L121.242 62.9745ZM119.637 61.5806L125.765 61.6253L125.754 63.1739L119.626 63.1292L119.637 61.5806Z" fill="#131212"></path><path d="M118.749 73.2869L124.694 74.5538L124.371 76.0685L118.427 74.8015L118.749 73.2869ZM118.461 74.6387L119.78 74.9198L119.267 77.3303L117.948 77.0491L118.461 74.6387Z" fill="#131212"></path><path d="M116.044 83.2359L120.831 87.4583L119.836 89.7312L113.46 89.1394L114.101 87.6749L119.305 88.2446L118.975 88.582L119.416 87.5752L119.388 88.0539L115.423 84.6545L116.044 83.2359ZM116.695 85.257L117.668 86.1917L116.743 88.3045L115.396 88.224L116.695 85.257Z" fill="#131212"></path><path d="M111.82 96.1819L115.915 96.9662L115.002 98.258L112.124 97.641L112.31 97.5075L111.964 97.997L112.038 97.7634L113.656 100.162L112.791 101.386L110.599 97.9089L111.82 96.1819ZM109.784 95.1098L111.81 96.542L110.935 97.7795L108.909 96.3472L109.784 95.1098Z" fill="#131212"></path><path d="M95.0483 111.927L95.7535 113.077L92.6446 114.983L91.9394 113.833L95.0483 111.927Z" fill="#131212"></path><path d="M74.124 118.746L73.0726 125.042L70.6173 125.4L67.7469 119.676L69.3288 119.445L71.5982 124.163L71.1375 124.062L72.2251 123.903L71.8042 124.133L72.5915 118.97L74.124 118.746ZM72.7533 120.368L72.4744 121.688L70.1921 122.02L69.5482 120.835L72.7533 120.368Z" fill="#131212"></path><path d="M60.4036 121.313L60.3265 122.643L59.329 122.585C59.1406 122.574 58.975 122.601 58.8323 122.665C58.6892 122.734 58.5749 122.836 58.4893 122.97C58.4037 123.104 58.3554 123.266 58.3445 123.454C58.3332 123.648 58.3624 123.816 58.4319 123.959C58.5014 124.102 58.6034 124.214 58.7377 124.294C58.8721 124.374 59.0335 124.42 59.2219 124.431L60.2194 124.489L60.1422 125.818L59.1863 125.763C58.6654 125.733 58.2217 125.618 57.8551 125.419C57.4827 125.225 57.2035 124.958 57.0174 124.62C56.8314 124.281 56.7515 123.884 56.7779 123.43L56.7856 123.297C56.8117 122.848 56.9367 122.466 57.1607 122.151C57.3847 121.836 57.6931 121.601 58.0857 121.446C58.4728 121.29 58.9268 121.228 59.4477 121.258L60.4036 121.313ZM61.877 119.781L61.522 125.899L59.9759 125.809L60.331 119.691L61.877 119.781Z" fill="#131212"></path><path d="M50.5181 118.378L48.9517 124.251L47.5036 123.864L49.07 117.992L50.5181 118.378ZM49.2309 118.035L48.9047 119.257L46.4269 118.596L46.753 117.374L49.2309 118.035ZM48.5979 120.408L48.2717 121.631L45.9628 121.015L46.289 119.792L48.5979 120.408ZM47.9906 122.685L47.6645 123.907L45.2349 123.259L45.561 122.037L47.9906 122.685Z" fill="#131212"></path><path d="M39.674 114.717L36.9351 120.199L35.5497 119.507L38.2886 114.025L39.674 114.717ZM36.3967 113.08L36.77 116.152L35.2654 115.4L34.8027 112.283L36.3967 113.08ZM37.8051 115.868L37.2729 116.933L35.9695 116.282C35.8056 116.2 35.648 116.162 35.4965 116.167C35.3451 116.172 35.2074 116.218 35.0833 116.305C34.9542 116.389 34.85 116.511 34.7706 116.67C34.6887 116.834 34.6528 116.993 34.6628 117.147C34.6678 117.298 34.7137 117.436 34.8007 117.56C34.8876 117.684 35.013 117.787 35.1768 117.869L36.4803 118.52L35.8998 119.682L34.6783 119.072C34.2065 118.836 33.8353 118.561 33.5646 118.245C33.2915 117.935 33.1325 117.595 33.0877 117.225C33.0404 116.86 33.1185 116.474 33.3219 116.067L33.3815 115.948C33.5849 115.541 33.8492 115.248 34.1743 115.069C34.492 114.893 34.8569 114.82 35.269 114.853C35.6736 114.887 36.1118 115.022 36.5835 115.258L37.8051 115.868Z" fill="#131212"></path><path d="M28.8329 108.197L25.8079 112.047L24.5902 111.09L27.6151 107.241L28.8329 108.197ZM27.2202 112.945L26.3868 114.005L22.5503 110.991L23.3837 109.93L27.2202 112.945Z" fill="#131212"></path><path d="M21.2669 101.308L16.6263 105.233L15.6584 104.089L20.299 100.164L21.2669 101.308ZM20.4066 100.291L19.4403 101.108L17.7841 99.1503L18.7504 98.3329L20.4066 100.291ZM18.5312 101.877L17.565 102.694L16.0217 100.87L16.988 100.053L18.5312 101.877ZM16.7322 103.399L15.7659 104.216L14.142 102.296L15.1083 101.479L16.7322 103.399Z" fill="#131212"></path><path d="M9.10137 79.3962C9.26367 79.927 9.31463 80.4164 9.25426 80.8644C9.18857 81.314 9.04686 81.7143 8.82913 82.0653C8.60609 82.4179 8.33887 82.7115 8.02748 82.946C7.71609 83.1805 7.39584 83.3481 7.06673 83.4487L6.89155 83.5023C6.52529 83.6143 6.14669 83.6575 5.75577 83.6319C5.35955 83.6079 4.97753 83.5071 4.60974 83.3293C4.24194 83.1515 3.91387 82.8949 3.62553 82.5593C3.33556 82.2184 3.11186 81.7906 2.95443 81.2757C2.79862 80.7661 2.74641 80.2915 2.79779 79.8521C2.84755 79.4074 2.97518 79.0085 3.18067 78.6554C3.38617 78.3023 3.64645 78.0051 3.96153 77.7636C4.26968 77.5185 4.60688 77.34 4.97315 77.228L5.14832 77.1744C5.47743 77.0738 5.83745 77.0363 6.22837 77.0619C6.61766 77.0821 7.00336 77.1761 7.38546 77.3437C7.76225 77.5129 8.10359 77.7655 8.40948 78.1015C8.71006 78.4391 8.94069 78.8707 9.10137 79.3962ZM7.71592 79.8198C7.63802 79.565 7.52576 79.3497 7.37915 79.174C7.23255 78.9983 7.06036 78.8623 6.8626 78.766C6.66484 78.6697 6.45375 78.6153 6.22931 78.6027C5.99957 78.5916 5.76526 78.6226 5.52639 78.6957C5.27159 78.7736 5.05286 78.884 4.87018 79.0269C4.68588 79.1645 4.54133 79.3277 4.43652 79.5165C4.33171 79.7053 4.27033 79.9127 4.25238 80.1387C4.23443 80.3648 4.2636 80.6026 4.33988 80.852C4.41779 81.1068 4.52739 81.3229 4.66869 81.5003C4.80998 81.6777 4.97686 81.8153 5.16931 81.9132C5.36176 82.011 5.57286 82.0655 5.8026 82.0765C6.03235 82.0875 6.27462 82.0541 6.52941 81.9762C6.76828 81.9031 6.97987 81.7978 7.16417 81.6602C7.34316 81.5242 7.48771 81.361 7.59783 81.1706C7.70795 80.9802 7.77463 80.7712 7.79789 80.5435C7.82115 80.3158 7.79382 80.0746 7.71592 79.8198Z" fill="#131212"></path><path d="M5.22103 57.5979L3.89669 57.4535L4.00502 56.4602C4.02548 56.2726 4.00737 56.1059 3.95068 55.9601C3.88848 55.8138 3.79261 55.6944 3.66308 55.6021C3.53356 55.5098 3.37499 55.4534 3.18737 55.433C2.99424 55.4119 2.82448 55.4325 2.6781 55.4947C2.53172 55.5569 2.41515 55.6531 2.32836 55.7832C2.24158 55.9133 2.18796 56.0722 2.1675 56.2598L2.05916 57.2531L0.734822 57.1086L0.838641 56.1567C0.895215 55.638 1.03225 55.2007 1.24976 54.8447C1.46235 54.4826 1.74256 54.2173 2.0904 54.0486C2.43823 53.88 2.83839 53.8203 3.29087 53.8696L3.42331 53.8841C3.87027 53.9328 4.24541 54.0771 4.54871 54.3167C4.852 54.5564 5.07118 54.8763 5.20623 55.2763C5.34188 55.6708 5.38142 56.1273 5.32485 56.646L5.22103 57.5979ZM6.67693 59.1471L0.584961 58.4826L0.752877 56.9431L6.84485 57.6075L6.67693 59.1471Z" fill="#131212"></path><path d="M8.74448 47.5905L2.95852 45.7287L3.4329 44.2545L9.21887 46.1163L8.74448 47.5905ZM9.16786 46.2748L7.88385 45.8617L8.63879 43.5156L9.9228 43.9287L9.16786 46.2748Z" fill="#131212"></path><path d="M12.4423 37.9663L8.1075 33.2813L9.32744 31.1207L15.6109 32.3546L14.8249 33.7466L9.70505 32.6535L10.067 32.3511L9.52665 33.3081L9.6027 32.8347L13.2037 36.6178L12.4423 37.9663ZM11.9989 35.8897L11.1261 34.8614L12.2601 32.8531L13.5914 33.0693L11.9989 35.8897Z" fill="#131212"></path><path d="M17.9544 25.514L13.9595 24.3195L14.9987 23.1267L17.7992 24.0316L17.6005 24.1456L17.9943 23.6936L17.8977 23.9186L16.5301 21.3689L17.5146 20.2389L19.3436 23.9195L17.9544 25.514ZM19.8714 26.7867L18.0006 25.1568L18.996 24.0142L20.8668 25.6441L19.8714 26.7867Z" fill="#131212"></path><path d="M31.06 13.8858L30.291 12.7777L33.287 10.6983L34.056 11.8064L31.06 13.8858Z" fill="#131212"></path></g></svg>