<svg fill="none" height="25" viewbox="0 0 25 25" width="25" xmlns="http://www.w3.org/2000/svg"><path d="M21.0025 4.35776C19.8968 3.24089 18.5798 2.35535 17.1283 1.7528C15.6768 1.15025 14.1198 0.842741 12.5482 0.848216C5.96332 0.848216 0.596483 6.21505 0.596483 12.8C0.596483 14.9105 1.15126 16.9608 2.18844 18.7698L0.5 24.9688L6.83166 23.3045C8.5804 24.2573 10.5462 24.7638 12.5482 24.7638C19.1332 24.7638 24.5 19.397 24.5 12.812C24.5 9.61605 23.2578 6.61304 21.0025 4.35776ZM12.5482 22.7377C10.7633 22.7377 9.01457 22.2552 7.48291 21.3507L7.1211 21.1336L3.35829 22.1226L4.3593 18.4563L4.11809 18.0824C3.12643 16.4988 2.59987 14.6684 2.59849 12.8C2.59849 7.3246 7.0608 2.86229 12.5362 2.86229C15.1894 2.86229 17.6859 3.89947 19.5553 5.78088C20.4809 6.70224 21.2144 7.79816 21.7133 9.00511C22.2123 10.2121 22.4667 11.506 22.4618 12.812C22.4859 18.2874 18.0236 22.7377 12.5482 22.7377ZM17.9995 15.3085C17.698 15.1638 16.2266 14.4402 15.9613 14.3316C15.6839 14.2351 15.491 14.1869 15.2859 14.4764C15.0809 14.7779 14.5141 15.4532 14.3452 15.6462C14.1764 15.8512 13.9955 15.8753 13.694 15.7186C13.3925 15.5738 12.4276 15.2482 11.294 14.2351C10.4015 13.4392 9.81055 12.4623 9.62965 12.1608C9.4608 11.8593 9.60553 11.7025 9.76231 11.5457C9.89497 11.413 10.0638 11.196 10.2085 11.0271C10.3533 10.8583 10.4136 10.7256 10.51 10.5326C10.6065 10.3276 10.5583 10.1588 10.4859 10.014C10.4136 9.86932 9.81055 8.39796 9.56935 7.79495C9.32814 7.21605 9.07487 7.28842 8.89397 7.27636H8.31507C8.11005 7.27636 7.79648 7.34872 7.51909 7.65022C7.25377 7.95173 6.48191 8.67535 6.48191 10.1467C6.48191 11.6181 7.55528 13.0412 7.7 13.2341C7.84472 13.4392 9.81055 16.4542 12.8015 17.7447C13.5131 18.0583 14.0678 18.2392 14.502 18.3718C15.2136 18.601 15.8648 18.5648 16.3834 18.4924C16.9623 18.408 18.1563 17.7688 18.3975 17.0693C18.6508 16.3698 18.6508 15.7789 18.5663 15.6462C18.4819 15.5135 18.301 15.4532 17.9995 15.3085Z" fill="#F6F2FF"></path></svg>